# xmcd CD database file
#
# Track frame offsets:
#	150
#	18355
#	34100
#	52470
#	65685
#	82175
#	100505
#	111005
#	124145
#	142845
#	156782
#	169857
#	183855
#	199912
#	213732
#	226777
#	243940
#	259000
#
# Disc length: 3671 seconds
#
# Revision: 1
# Processed by: cddbd v1.5.2PL0 Copyright (c) Steve Scherf et al.
# Submitted via: CDex 1.51
#
DISCID=fa0e5512
DTITLE=Krajina ceske country -  CD_2 Barevne nalady
DYEAR=2001
DGENRE=Country
TTITLE0=Kamelot - Hardegg
TTITLE1=Pavel Bobek - Odvykam
TTITLE2=Vera Martinova - O,Pane nas
TTITLE3=Jaroslav Mateju - Fenix
TTITLE4=Zalman a spol. - Tulacka ukolebavka
TTITLE5=Netto - Zas bude fajn
TTITLE6=Jan Vycital - Kdyz u nas Pete Seeger hral
TTITLE7=Pavlina jisova a Weekend - K zoufani prazdne myslenky mivam
TTITLE8=Robert Krestan a Druha trava - Ukolebavka pro mne
TTITLE9=Paberky marko Cermaka - Kalifornie
TTITLE10=Wabi Danek - Velka rybi skola
TTITLE11=Nezmari - Reka
TTITLE12=Petr Spaleny - Kde jsou honorare
TTITLE13=Schovanky - Flam
TTITLE14=Michal Tucny - Slamu v botach nosim
TTITLE15=Blanka Taborska  - Barva nebe
TTITLE16=Lehka noha - New Orleans
TTITLE17=Spiritual kvintet - Bim bam
EXTD=YEAR: 2001
EXTT0=
EXTT1=
EXTT2=
EXTT3=
EXTT4=
EXTT5=
EXTT6=
EXTT7=
EXTT8=
EXTT9=
EXTT10=
EXTT11=
EXTT12=
EXTT13=
EXTT14=
EXTT15=
EXTT16=
EXTT17=
PLAYORDER=
